<?xml version="1.0" standalone="no"?>
<!DOCTYPE svg PUBLIC "-//W3C//DTD SVG 20010904//EN"
 "http://www.w3.org/TR/2001/REC-SVG-20010904/DTD/svg10.dtd">
<svg version="1.0" xmlns="http://www.w3.org/2000/svg"
 width="192.000000pt" height="192.000000pt" viewBox="0 0 192.000000 192.000000"
 preserveAspectRatio="xMidYMid meet">
<metadata>
Created by potrace 1.11, written by Peter Selinger 2001-2013
</metadata>
<g transform="translate(0.000000,192.000000) scale(0.100000,-0.100000)"
fill="#000000" stroke="none">
<path d="M330 1704 c-66 -31 -160 -126 -195 -199 -34 -70 -41 -147 -17 -211 9
-24 20 -44 24 -44 4 0 8 -5 8 -11 0 -5 13 -24 29 -41 23 -24 27 -36 20 -49 -9
-18 -39 -134 -45 -179 -24 -170 -24 -275 1 -399 19 -98 136 -250 221 -286 48
-21 137 -46 142 -40 3 2 12 0 21 -4 16 -9 62 -17 151 -27 65 -8 464 -8 535 -1
156 17 187 23 265 49 168 57 275 195 297 383 8 74 3 310 -7 310 -1 0 -3 9 -5
20 -3 25 -15 77 -31 138 -3 12 -8 31 -11 42 -3 13 5 31 21 48 44 48 69 107 72
172 2 50 -2 71 -28 124 -35 74 -131 176 -193 206 -57 27 -126 24 -167 -8 -54
-41 -74 -61 -87 -85 -9 -16 -18 -21 -29 -17 -9 4 -25 8 -35 10 -9 2 -21 6 -25
9 -5 3 -24 8 -43 11 -19 3 -42 8 -52 11 -48 15 -295 21 -347 9 -14 -3 -41 -8
-60 -10 -19 -2 -64 -13 -99 -24 l-64 -20 -17 22 c-42 52 -72 79 -107 94 -57
24 -87 23 -143 -3z"/>
</g>
</svg>
